<svg xmlns="http://www.w3.org/2000/svg" width="155.344" height="25.944" viewBox="0 0 155.344 25.944">
  <g id="logo" transform="translate(0.007 -0.08)">
    <g id="Grupo_3" data-name="Grupo 3" transform="translate(19.257 2.06)">
      <path id="Trazado_13" data-name="Trazado 13" d="M118.9,51.64V31.632c0-.211.113-.324.292-.324h1.944a.423.423,0,0,1,.389.292l.437,1.62A5.107,5.107,0,0,1,126.417,31c4.2,0,7,2.949,7,7.274s-2.8,7.242-7,7.242a5.038,5.038,0,0,1-4.164-1.9v8a.272.272,0,0,1-.292.292h-2.77A.26.26,0,0,1,118.9,51.64Zm7.339-9.478a3.665,3.665,0,0,0,3.872-3.872,3.9,3.9,0,1,0-3.872,3.872Z" transform="translate(-118.9 -27.97)" fill="#2d3d38"/>
      <path id="Trazado_14" data-name="Trazado 14" d="M228.843,32.035c.065-.178.146-.292.324-.292h2.252a.272.272,0,0,1,.292.292v13.3a.29.29,0,0,1-.292.292h-2.268c-.178,0-.259-.113-.324-.292l-.421-1.572a5.149,5.149,0,0,1-4.439,2.187C219.8,45.984,217,43,217,38.71c0-4.31,2.8-7.21,6.966-7.21a5.22,5.22,0,0,1,4.439,2.122Zm-4.666,10.579a3.889,3.889,0,1,0,0-7.777,3.64,3.64,0,0,0-3.84,3.872A3.7,3.7,0,0,0,224.177,42.614Z" transform="translate(-201.107 -28.389)" fill="#2d3d38"/>
      <path id="Trazado_15" data-name="Trazado 15" d="M332.4,33.405,324.45,53.349a.43.43,0,0,1-.389.259h-2.835c-.259,0-.356-.178-.259-.389l2.544-6.448-5.346-13.382c-.081-.243.032-.389.243-.389h2.981a.384.384,0,0,1,.389.259l3.37,9.364,3.726-9.364a.384.384,0,0,1,.389-.259h2.9C332.4,33.016,332.5,33.162,332.4,33.405Z" transform="translate(-285.859 -29.646)" fill="#2d3d38"/>
      <path id="Trazado_16" data-name="Trazado 16" d="M419.079,31.224a.354.354,0,0,1,.356.324l.324,1.474a4.69,4.69,0,0,1,8.182.6,4.837,4.837,0,0,1,4.488-2.722c2.932,0,4.941,2.268,4.941,6.205v7.712c0,.178-.081.292-.259.292h-2.787c-.211,0-.324-.113-.324-.292v-7.08c0-2.333-.859-3.435-2.43-3.435-2.365,0-2.9,2.43-2.932,4.342v6.173c0,.178-.081.292-.259.292h-2.8a.29.29,0,0,1-.292-.292v-7.08c0-2.333-.859-3.435-2.43-3.435-2.155,0-2.835,2.252-2.9,4.018v6.5a.272.272,0,0,1-.292.292h-2.77a.272.272,0,0,1-.292-.292V31.548a.318.318,0,0,1,.292-.324Z" transform="translate(-368.369 -27.887)" fill="#2d3d38"/>
      <path id="Trazado_17" data-name="Trazado 17" d="M561.534,42.776a4.711,4.711,0,0,0,3.159-1.085.514.514,0,0,1,.292-.113.308.308,0,0,1,.211.081l1.75,1.8a.323.323,0,0,1,.032.437,7.343,7.343,0,0,1-5.622,2.009c-4.407.049-7.355-2.884-7.355-7.193a6.82,6.82,0,0,1,7.177-7.21c4.342,0,7.21,2.592,7.177,8.246a.265.265,0,0,1-.292.292h-10.5A3.812,3.812,0,0,0,561.534,42.776Zm3.305-5.249a3.771,3.771,0,0,0-7.323,0Z" transform="translate(-483.509 -28.389)" fill="#2d3d38"/>
      <path id="Trazado_18" data-name="Trazado 18" d="M652,31.464a.272.272,0,0,1,.292-.292h2.187a.329.329,0,0,1,.357.292l.324,1.588a4.888,4.888,0,0,1,4.374-2.252c3.127,0,5.282,2.268,5.282,6.205v7.712a.272.272,0,0,1-.292.292h-2.77a.272.272,0,0,1-.292-.292V37.653c0-2.333-1.15-3.435-2.77-3.435-2.268,0-3.224,2.09-3.305,4.083v6.448a.29.29,0,0,1-.292.292h-2.77a.272.272,0,0,1-.292-.292V31.464Z" transform="translate(-565.632 -27.803)" fill="#2d3d38"/>
      <path id="Trazado_19" data-name="Trazado 19" d="M741.755,29.149V18.78h-1.863a.29.29,0,0,1-.292-.292V15.945a.265.265,0,0,1,.292-.259h1.863l.032-3.127a.256.256,0,0,1,.259-.259H744.8a.29.29,0,0,1,.292.292v3.094h1.863a.265.265,0,0,1,.292.259v2.544a.29.29,0,0,1-.292.292h-1.863V29.149a.394.394,0,0,1-.389.389h-2.576A.381.381,0,0,1,741.755,29.149Z" transform="translate(-639.039 -12.3)" fill="#2d3d38"/>
      <path id="Trazado_20" data-name="Trazado 20" d="M801.333,42.692a4.711,4.711,0,0,0,3.159-1.085.514.514,0,0,1,.292-.113.308.308,0,0,1,.211.081l1.75,1.8a.323.323,0,0,1,.032.437,7.342,7.342,0,0,1-5.622,2.009c-4.407.032-7.355-2.9-7.355-7.21a6.82,6.82,0,0,1,7.177-7.21c4.342,0,7.21,2.592,7.177,8.246a.265.265,0,0,1-.292.292H797.38A3.763,3.763,0,0,0,801.333,42.692Zm3.305-5.249a3.771,3.771,0,0,0-7.323,0Z" transform="translate(-684.458 -28.306)" fill="#2d3d38"/>
      <path id="Trazado_21" data-name="Trazado 21" d="M889.359,46.968c-.259,0-.356-.211-.211-.421l5.946-10.336h-5.379a.272.272,0,0,1-.292-.292V33.392a.272.272,0,0,1,.292-.292h10.4c.243,0,.356.178.178.5l-5.913,10.255h5.735a.265.265,0,0,1,.259.292V46.66c0,.178-.081.292-.259.292H889.359Z" transform="translate(-764.302 -29.73)" fill="#2d3d38"/>
    </g>
    <g id="Grupo_4" data-name="Grupo 4" transform="translate(-0.007 0.08)">
      <path id="Trazado_22" data-name="Trazado 22" d="M13.911,5.381,5.486.164a.505.505,0,0,0-.5-.032L.318,2.189a.539.539,0,0,0-.065.956l13.074,8.214a.551.551,0,0,0,.842-.454V5.835A.6.6,0,0,0,13.911,5.381Z" transform="translate(0.007 -0.08)" fill="#dcce3a"/>
      <path id="Trazado_23" data-name="Trazado 23" d="M13.911,50.381,5.486,45.164a.506.506,0,0,0-.5-.032L.318,47.189a.539.539,0,0,0-.065.956l13.074,8.214a.551.551,0,0,0,.842-.454V50.835A.624.624,0,0,0,13.911,50.381Z" transform="translate(0.007 -37.789)" fill="#26b57e"/>
      <path id="Trazado_24" data-name="Trazado 24" d="M13.911,95.381,5.486,90.164a.505.505,0,0,0-.5-.032L.318,92.189a.539.539,0,0,0-.065.956l13.074,8.214a.551.551,0,0,0,.842-.454V95.851A.628.628,0,0,0,13.911,95.381Z" transform="translate(0.007 -75.499)" fill="#008e6e"/>
    </g>
  </g>
</svg>
